# xmcd
#
# Track frame offsets: 
#        150
#        11772
#        24350
#        37040
#        50515
#        62937
#        82610
#        90925
#        103217
#        115740
#        129407
#        142722
#        154322
#        166637
#
# Disc length: 2414 seconds
#
# Revision: 4
# Processed by: cddbd v1.5.2PL0 Copyright (c) Steve Scherf et al.
# Submitted via: ExactAudioCopy v1.0b3
#
DISCID=a2096c0e
DTITLE=Various Artist - Stampede! Western Music's Late Golden Era
DYEAR=1996
DGENRE=Country
TTITLE0=Foy Willing And The Riders Of The Purple Sage - Stampede [1949
TTITLE0=]
TTITLE1=Tex Ritter - High Noon [1952]
TTITLE2=Roy Rogers And The Sons Of The Pioneers - Blue Shadows On The 
TTITLE2=Trail [1947]
TTITLE3=Vaughn Monroe And His Orchestra - Riders In The Sky [1949]
TTITLE4=Tex Ritter - The Wayward Wind [1956]
TTITLE5=Marty Robbins - El Paso [1959]
TTITLE6=Johnny Western - The Ballad Of Paladin [1958]
TTITLE7=The Sons Of The Pioneers - Theme From "The Searchers" [1956]
TTITLE8=Elton Britt And Rosalie Allen - Yodel Blues [1949]
TTITLE9=Jimmy Wakely - The Touch Of God's Hand [1949]
TTITLE10=Rex Allen - Tear Drops In My Heart [1947]
TTITLE11=Andy Parker And The Plainsmen - Trail Dust [1950]
TTITLE12=Eddy Arnold - Cattle Call [1949]
TTITLE13=The Sons Of The Pioneers - Outlaws [1951]
EXTD=
EXTT0=
EXTT1=
EXTT2=
EXTT3=
EXTT4=
EXTT5=
EXTT6=
EXTT7=
EXTT8=
EXTT9=
EXTT10=
EXTT11=
EXTT12=
EXTT13=
PLAYORDER=
